<svg width="14" height="8" viewBox="0 0 14 8" fill="none" xmlns="http://www.w3.org/2000/svg">
<path d="M13.0664 1.9168L7.46644 7.53346C7.39977 7.60013 7.32755 7.64735 7.24977 7.67513C7.17199 7.70291 7.08866 7.7168 6.99977 7.7168C6.91088 7.7168 6.82755 7.70291 6.74977 7.67513C6.67199 7.64735 6.59977 7.60013 6.53311 7.53346L0.916439 1.9168C0.760883 1.76124 0.683105 1.5668 0.683105 1.33346C0.683105 1.10013 0.766438 0.90013 0.933105 0.733463C1.09977 0.566796 1.29422 0.483463 1.51644 0.483463C1.73866 0.483463 1.93311 0.566796 2.09977 0.733463L6.99977 5.63346L11.8998 0.733463C12.0553 0.577907 12.247 0.50013 12.4748 0.50013C12.7025 0.50013 12.8998 0.583463 13.0664 0.75013C13.2331 0.916796 13.3164 1.11124 13.3164 1.33346C13.3164 1.55568 13.2331 1.75013 13.0664 1.9168Z" fill="#74758F"/>
</svg>
