<svg width="96" height="96" viewBox="0 0 96 96" fill="none" xmlns="http://www.w3.org/2000/svg">
<path d="M81 27H15C13.3431 27 12 28.3431 12 30V78C12 79.6569 13.3431 81 15 81H81C82.6569 81 84 79.6569 84 78V30C84 28.3431 82.6569 27 81 27Z" stroke="#ED1B24" stroke-width="3" stroke-linecap="round" stroke-linejoin="round"/>
<path d="M63 27V21C63 19.4087 62.3679 17.8826 61.2426 16.7574C60.1174 15.6321 58.5913 15 57 15H39C37.4087 15 35.8826 15.6321 34.7574 16.7574C33.6321 17.8826 33 19.4087 33 21V27" stroke="#ED1B24" stroke-width="3" stroke-linecap="round" stroke-linejoin="round"/>
<path d="M84 47.3628C73.0586 53.6906 60.6395 57.0153 48 57.0003C35.3582 57.0332 22.9345 53.7073 12 47.3628" stroke="#ED1B24" stroke-width="3" stroke-linecap="round" stroke-linejoin="round"/>
<path d="M43.5 45H52.5" stroke="#ED1B24" stroke-width="3" stroke-linecap="round" stroke-linejoin="round"/>
</svg>
