<svg width="32" height="32" viewBox="0 0 32 32" fill="none" xmlns="http://www.w3.org/2000/svg">
<path d="M16 17.0005C18.2091 17.0005 20 15.2096 20 13.0005C20 10.7913 18.2091 9.00049 16 9.00049C13.7909 9.00049 12 10.7913 12 13.0005C12 15.2096 13.7909 17.0005 16 17.0005Z" stroke="#ED1B24" stroke-width="2" stroke-linecap="round" stroke-linejoin="round"/>
<path d="M26 13.0005C26 22.0005 16 29.0005 16 29.0005C16 29.0005 6 22.0005 6 13.0005C6 10.3483 7.05357 7.80478 8.92893 5.92942C10.8043 4.05406 13.3478 3.00049 16 3.00049C18.6522 3.00049 21.1957 4.05406 23.0711 5.92942C24.9464 7.80478 26 10.3483 26 13.0005V13.0005Z" stroke="#ED1B24" stroke-width="2" stroke-linecap="round" stroke-linejoin="round"/>
</svg>
