<svg width="32" height="32" viewBox="0 0 32 32" fill="none" xmlns="http://www.w3.org/2000/svg">
<path d="M11.5625 15.6005C12.5915 17.7255 14.3098 19.4395 16.4375 20.463C16.5944 20.5373 16.768 20.5695 16.9412 20.5564C17.1143 20.5432 17.2811 20.4852 17.425 20.388L20.55 18.3005C20.6881 18.2069 20.8476 18.1497 21.0137 18.1344C21.1799 18.1191 21.3472 18.1462 21.5 18.213L27.35 20.7255C27.5499 20.8087 27.717 20.9554 27.8254 21.1428C27.9338 21.3303 27.9776 21.5482 27.95 21.763C27.7646 23.2102 27.0582 24.5402 25.9631 25.5042C24.8679 26.4683 23.459 27.0002 22 27.0005C17.4913 27.0005 13.1673 25.2095 9.97919 22.0213C6.79107 18.8332 5 14.5092 5 10.0005C5.00033 8.54153 5.53227 7.13263 6.49628 6.03747C7.4603 4.94232 8.79033 4.23594 10.2375 4.05053C10.4523 4.02294 10.6702 4.06672 10.8577 4.17514C11.0452 4.28356 11.1918 4.45059 11.275 4.65053L13.7875 10.513C13.8528 10.6635 13.8802 10.8277 13.8671 10.9911C13.854 11.1546 13.8009 11.3124 13.7125 11.4505L11.625 14.6255C11.5321 14.7691 11.4775 14.9342 11.4666 15.1049C11.4556 15.2756 11.4887 15.4462 11.5625 15.6005V15.6005Z" stroke="#ED1B24" stroke-width="2" stroke-linecap="round" stroke-linejoin="round"/>
</svg>
