<svg width="144" height="60" viewBox="0 0 144 60" fill="none" xmlns="http://www.w3.org/2000/svg">
<g id="Group 44">
<path id="Vector" fill-rule="evenodd" clip-rule="evenodd" d="M117.129 0.0762122C121.44 -0.206765 125.816 0.29244 129.919 1.6716C134.644 3.26323 139.111 6.06385 142.037 10.1844C142.392 10.74 142.353 11.5081 141.964 12.0374C141.651 12.4802 141.114 12.7462 140.574 12.7313C136.644 12.7285 132.714 12.7341 128.784 12.7294C128.207 12.7322 127.727 12.3628 127.373 11.9435C125.122 9.48881 121.697 8.21119 118.396 8.55057C115.244 8.83073 112.248 10.5765 110.479 13.2173C109.204 15.0863 108.573 17.3868 108.723 19.6487C108.901 22.8461 110.691 25.8695 113.339 27.6341C116.145 29.5567 119.865 30.0211 123.063 28.8807C124.768 28.2847 126.316 27.2496 127.52 25.9005C127.905 25.4991 128.19 25.014 128.567 24.6069C128.961 24.2017 129.546 24.1087 130.086 24.1406C133.86 24.1416 137.634 24.1434 141.409 24.1397C142.36 24.1519 143.145 25.1193 142.977 26.0594C142.88 26.663 142.473 27.1434 142.155 27.6445C140.368 30.2448 137.92 32.3394 135.216 33.9292C132.224 35.6853 128.901 36.8426 125.495 37.4612C121.423 38.1936 117.218 38.1795 113.15 37.418C109.593 36.7439 106.127 35.4823 103.046 33.5578C100.692 32.0847 98.5601 30.2157 96.9334 27.95C95.7662 26.3274 94.8696 24.4988 94.3791 22.5556C93.7267 20.0116 93.7941 17.2881 94.5635 14.7778C95.507 11.6642 97.4688 8.93499 99.8836 6.79715C102.077 4.85298 104.638 3.35348 107.349 2.26388C110.464 1.01351 113.785 0.299961 117.13 0.0762122H117.129ZM63.486 0.727717C63.9635 0.604655 64.4596 0.643106 64.9471 0.638406C67.7233 0.637465 70.4985 0.640286 73.2737 0.636525C74.3408 0.616877 75.3713 1.10565 76.1453 1.82296C76.5179 2.1567 76.7537 2.60326 77.0121 3.02444C83.4722 13.647 89.9333 24.2695 96.3933 34.892C96.6236 35.266 96.7771 35.7616 96.5609 36.1762C96.3325 36.5992 95.813 36.7289 95.3675 36.7271C92.9014 36.7279 90.4341 36.7271 87.9678 36.7271C87.3884 36.7224 86.7987 36.7702 86.2371 36.5992C85.2356 36.3059 84.2847 35.7004 83.7315 34.7951C83.3178 34.1492 82.9004 33.5053 82.4857 32.8593C82.2545 32.504 82.0421 32.1298 81.7341 31.8327C81.1351 31.2517 80.3797 30.8334 79.5692 30.6398C79.0394 30.5138 78.4928 30.5683 77.9546 30.558C73.0566 30.5392 68.1586 30.5438 63.2615 30.5242C62.8066 30.5401 62.2937 30.4094 62.0288 30.0071C61.7574 29.5916 61.8734 29.0499 62.099 28.6411C62.6044 27.7094 63.1127 26.7796 63.6181 25.848C63.8699 25.392 64.0889 24.9032 64.4689 24.5356C65.2093 23.8003 66.2304 23.2908 67.2881 23.3294C69.5654 23.3331 71.8426 23.3294 74.1199 23.3321C74.5027 23.3312 74.9248 23.287 75.2215 23.0162C75.449 22.8169 75.5313 22.4898 75.4724 22.1983C75.4134 21.8561 75.214 21.5666 75.0287 21.2817C73.3589 18.6926 71.6929 16.1007 70.0221 13.5116C69.7703 13.1233 69.352 12.7877 68.8681 12.8112C68.3954 12.8272 68.0079 13.1703 67.7711 13.5577C63.6574 20.1413 59.5447 26.7269 55.431 33.3115C55.037 33.9235 54.6776 34.5581 54.261 35.1542C53.5282 36.0454 52.4208 36.6452 51.2686 36.7232C48.558 36.7326 45.8474 36.7242 43.1368 36.7279C42.68 36.7345 42.1503 36.6292 41.891 36.2127C41.6355 35.7963 41.7777 35.2679 42.0108 34.8759C48.2969 24.1416 54.5867 13.4082 60.8701 2.67292C61.4045 1.68016 62.4135 1.00515 63.4861 0.727811L63.486 0.727717ZM30.9137 1.17898C31.6064 1.00317 32.3252 0.999413 33.0356 1.00223C35.6938 1.00317 38.3511 1.00317 41.0093 1.00223C40.9391 3.39485 40.9681 5.78943 40.9606 8.18298C40.9709 13.6376 40.9952 19.0912 41.0121 24.5458C41.0767 26.4637 40.8773 28.4191 40.1632 30.2129C39.5791 31.7086 38.6469 33.0718 37.432 34.121C36.1927 35.2021 34.6858 35.9448 33.1105 36.3857C31.5334 36.8285 29.8879 36.9874 28.2546 36.9742H11.9694C9.13149 37.0372 6.29452 36.1074 3.99761 34.4406C2.41767 33.2871 1.07724 31.7265 0.42121 29.8594C0.150617 29.0876 -0.00185493 28.2696 1.70363e-05 27.4508C0.000953022 25.6815 1.70363e-05 23.9131 1.70363e-05 22.1438C2.80517 22.1429 5.61031 22.1447 8.41546 22.1429C9.16238 22.1429 9.95142 22.1494 10.63 22.5048C11.2328 22.8066 11.5941 23.4402 11.7298 24.0842C11.9422 24.9172 11.7231 25.7934 11.975 26.6207C12.2605 27.8127 13.1441 28.8093 14.2541 29.2991C15.3221 29.787 16.5136 29.928 17.6761 29.912C19.4545 29.9111 21.2328 29.9111 23.0112 29.912C24.1138 29.9149 25.2529 29.8011 26.2572 29.3122C26.9892 28.9569 27.5779 28.3232 27.8755 27.5627C28.3389 26.3988 28.3257 25.1192 28.3267 23.8849C28.2818 21.1285 28.3098 18.3711 28.3023 15.6137C28.3033 12.1334 28.3005 8.65201 28.3033 5.17074C28.3117 4.22685 28.4278 3.22562 28.98 2.43122C29.4265 1.77407 30.1547 1.35948 30.9137 1.17898Z" fill="#C4C4C4"/>
<g id="sotrans">
<path d="M7.98925 56.3799C7.98925 55.9946 7.79699 55.6843 7.41245 55.4488C7.03319 55.2134 6.567 55.0181 6.01391 54.8629C5.46608 54.7023 4.91825 54.515 4.37042 54.301C3.82785 54.087 3.36431 53.7338 2.97977 53.2415C2.59524 52.7492 2.40297 52.1258 2.40297 51.3712C2.40297 50.4401 2.76907 49.6455 3.50126 48.9873C4.23873 48.3291 5.1948 48 6.36947 48C6.83302 48 7.28076 48.0562 7.71271 48.1686C8.14465 48.2756 8.49758 48.404 8.77149 48.5538C9.05067 48.6983 9.29298 48.8482 9.49842 49.0033C9.70912 49.1532 9.85925 49.2843 9.9488 49.3967L10.091 49.5572L8.63717 51.1224C8.57396 51.0475 8.48441 50.9565 8.36852 50.8495C8.2579 50.7371 8.02086 50.59 7.6574 50.408C7.29393 50.2261 6.91993 50.1351 6.5354 50.1351C6.07185 50.1351 5.69785 50.2555 5.4134 50.4963C5.13422 50.7371 4.99463 51.0288 4.99463 51.3712C4.99463 51.7565 5.18426 52.0669 5.56353 52.3023C5.94806 52.5324 6.41161 52.7278 6.95417 52.8883C7.502 53.0488 8.04983 53.2361 8.59766 53.4502C9.15076 53.6642 9.61957 54.0174 10.0041 54.5097C10.3886 55.002 10.5809 55.6254 10.5809 56.3799C10.5809 57.4448 10.199 58.3144 9.43521 58.9886C8.67667 59.6629 7.62842 60 6.29045 60C5.7637 60 5.25274 59.9331 4.75759 59.7993C4.2677 59.6709 3.86209 59.5157 3.54077 59.3338C3.22472 59.1518 2.94553 58.9672 2.70322 58.7799C2.46091 58.5926 2.28708 58.4348 2.18173 58.3064L2 58.1057L3.46176 56.6288C3.5355 56.7144 3.63822 56.8268 3.76991 56.9659C3.90687 57.0997 4.20712 57.2816 4.67067 57.5117C5.13422 57.7418 5.61884 57.8569 6.12453 57.8569C6.70923 57.8569 7.16488 57.7177 7.49147 57.4395C7.82332 57.1612 7.98925 56.808 7.98925 56.3799Z" fill="#C4C4C4"/>
<path d="M26.4384 51.3151C25.7325 52.0428 25.3796 52.9391 25.3796 54.004C25.3796 55.0635 25.7325 55.9572 26.4384 56.6849C27.1442 57.4127 28.0028 57.7766 29.0142 57.7766C30.0309 57.7766 30.8921 57.4127 31.598 56.6849C32.3038 55.9572 32.6568 55.0635 32.6568 54.004C32.6568 52.9391 32.3038 52.0428 31.598 51.3151C30.8921 50.5819 30.0309 50.2154 29.0142 50.2154C28.0028 50.2154 27.1442 50.5819 26.4384 51.3151ZM24.6448 58.2421C23.4595 57.0649 22.8669 55.6495 22.8669 53.996C22.8669 52.3425 23.4595 50.9298 24.6448 49.7579C25.8352 48.586 27.2917 48 29.0142 48C30.742 48 32.1985 48.586 33.3837 49.7579C34.5742 50.9298 35.1694 52.3425 35.1694 53.996C35.1694 55.6495 34.5742 57.0649 33.3837 58.2421C32.1985 59.414 30.742 60 29.0142 60C27.2917 60 25.8352 59.414 24.6448 58.2421Z" fill="#C4C4C4"/>
<path d="M46.4204 48.2408H55.3173V50.4642H52.0857V59.7512H49.6599V50.4642H46.4204V48.2408Z" fill="#C4C4C4"/>
<path d="M67.8562 59.7512V48.2408H72.8736C73.9956 48.2408 74.9227 48.6074 75.6549 49.3405C76.3923 50.0682 76.7611 50.9619 76.7611 52.0214C76.7611 52.4816 76.6899 52.9124 76.5477 53.3137C76.4055 53.7151 76.2369 54.0388 76.042 54.2849C75.8524 54.5311 75.6575 54.7425 75.4573 54.9191C75.2572 55.0957 75.086 55.2161 74.9437 55.2803L74.7383 55.3926L77.164 59.7512H74.5724L72.3916 55.7217H70.2898V59.7512H67.8562ZM74.3353 52.0214C74.3353 51.5719 74.1878 51.2 73.8929 50.9057C73.6031 50.6114 73.237 50.4642 72.7946 50.4642H70.2898V53.5064H72.7946C73.237 53.5064 73.6031 53.3645 73.8929 53.0809C74.1878 52.792 74.3353 52.4388 74.3353 52.0214Z" fill="#C4C4C4"/>
<path d="M95.9371 54.903L94.5623 51.1224L93.1795 54.903H95.9371ZM96.743 57.0381H92.3736L91.4017 59.7512H88.8101L93.2664 48.2408H95.8502L100.307 59.7512H97.7149L96.743 57.0381Z" fill="#C4C4C4"/>
<path d="M120.375 48.2408H122.801V59.7512H120.699L115.121 52.4388V59.7512H112.687V48.2408H114.797L120.375 55.5612V48.2408Z" fill="#C4C4C4"/>
<path d="M141.408 56.3799C141.408 55.9946 141.216 55.6843 140.832 55.4488C140.452 55.2134 139.986 55.0181 139.433 54.8629C138.885 54.7023 138.337 54.515 137.79 54.301C137.247 54.087 136.783 53.7338 136.399 53.2415C136.014 52.7492 135.822 52.1258 135.822 51.3712C135.822 50.4401 136.188 49.6455 136.92 48.9873C137.658 48.3291 138.614 48 139.789 48C140.252 48 140.7 48.0562 141.132 48.1686C141.564 48.2756 141.917 48.404 142.191 48.5538C142.47 48.6983 142.712 48.8482 142.918 49.0033C143.128 49.1532 143.278 49.2843 143.368 49.3967L143.51 49.5572L142.056 51.1224C141.993 51.0475 141.903 50.9565 141.788 50.8495C141.677 50.7371 141.44 50.59 141.076 50.408C140.713 50.2261 140.339 50.1351 139.954 50.1351C139.491 50.1351 139.117 50.2555 138.832 50.4963C138.553 50.7371 138.414 51.0288 138.414 51.3712C138.414 51.7565 138.603 52.0669 138.983 52.3023C139.367 52.5324 139.831 52.7278 140.373 52.8883C140.921 53.0488 141.469 53.2361 142.017 53.4502C142.57 53.6642 143.039 54.0174 143.423 54.5097C143.808 55.002 144 55.6254 144 56.3799C144 57.4448 143.618 58.3144 142.854 58.9886C142.096 59.6629 141.048 60 139.71 60C139.183 60 138.672 59.9331 138.177 59.7993C137.687 59.6709 137.281 59.5157 136.96 59.3338C136.644 59.1518 136.365 58.9672 136.122 58.7799C135.88 58.5926 135.706 58.4348 135.601 58.3064L135.419 58.1057L136.881 56.6288C136.955 56.7144 137.057 56.8268 137.189 56.9659C137.326 57.0997 137.626 57.2816 138.09 57.5117C138.553 57.7418 139.038 57.8569 139.544 57.8569C140.128 57.8569 140.584 57.7177 140.911 57.4395C141.242 57.1612 141.408 56.808 141.408 56.3799Z" fill="#C4C4C4"/>
</g>
</g>
</svg>
