<svg width="125" height="55" viewBox="0 0 125 55" fill="none" xmlns="http://www.w3.org/2000/svg">
<path fill-rule="evenodd" clip-rule="evenodd" d="M100.742 0.0669466C104.45 -0.181627 108.214 0.256887 111.743 1.46837C115.807 2.8665 119.648 5.32663 122.165 8.94623C122.471 9.43429 122.437 10.109 122.102 10.5739C121.833 10.9629 121.371 11.1966 120.907 11.1835C117.526 11.181 114.147 11.1859 110.766 11.1818C110.271 11.1843 109.858 10.8597 109.552 10.4914C107.617 8.3352 104.671 7.2129 101.832 7.51102C99.1208 7.75712 96.5439 9.29068 95.0224 11.6104C93.9259 13.2522 93.3833 15.273 93.5121 17.2599C93.6651 20.0685 95.2043 22.7244 97.4826 24.2745C99.8961 25.9633 103.095 26.3712 105.846 25.3695C107.312 24.8459 108.644 23.9367 109.68 22.7516C110.011 22.399 110.255 21.9729 110.58 21.6153C110.919 21.2594 111.422 21.1776 111.886 21.2057C115.132 21.2065 118.378 21.2082 121.625 21.2049C122.443 21.2156 123.118 22.0654 122.974 22.8912C122.89 23.4214 122.54 23.8434 122.266 24.2835C120.73 26.5678 118.624 28.4077 116.299 29.8042C113.725 31.3468 110.867 32.3634 107.938 32.9068C104.435 33.5501 100.819 33.5377 97.32 32.8688C94.26 32.2767 91.279 31.1685 88.6296 29.478C86.6049 28.1839 84.7711 26.5422 83.3719 24.5519C82.368 23.1266 81.5968 21.5203 81.175 19.8133C80.6139 17.5787 80.6718 15.1862 81.3336 12.9812C82.145 10.2461 83.8324 7.8487 85.9094 5.97078C87.7956 4.26297 89.999 2.94578 92.3304 1.98864C95.0095 0.890295 97.8658 0.263493 100.743 0.0669466H100.742ZM54.604 0.639244C55.0147 0.531143 55.4413 0.56492 55.8607 0.56079C58.2484 0.559965 60.6354 0.562442 63.0224 0.559139C63.9401 0.541879 64.8265 0.971226 65.4922 1.60133C65.8126 1.8945 66.0155 2.28677 66.2377 2.65674C71.794 11.9878 77.3512 21.3189 82.9074 30.6499C83.1054 30.9785 83.2375 31.4138 83.0515 31.778C82.8551 32.1496 82.4083 32.2635 82.0251 32.2619C79.904 32.2627 77.7819 32.2619 75.6606 32.2619C75.1623 32.2578 74.6551 32.2998 74.1721 32.1496C73.3107 31.892 72.4928 31.36 72.017 30.5649C71.6612 29.9974 71.3022 29.4318 70.9455 28.8644C70.7467 28.5522 70.5639 28.2236 70.2991 27.9626C69.7839 27.4522 69.1342 27.0847 68.437 26.9147C67.9814 26.804 67.5113 26.8519 67.0484 26.8429C62.8356 26.8263 58.6228 26.8304 54.4109 26.8131C54.0196 26.8272 53.5785 26.7123 53.3507 26.3589C53.1172 25.9939 53.217 25.5182 53.411 25.159C53.8458 24.3406 54.2829 23.5239 54.7176 22.7055C54.9342 22.3049 55.1225 21.8755 55.4494 21.5526C56.0862 20.9067 56.9645 20.4591 57.8742 20.4931C59.8328 20.4963 61.7915 20.4931 63.7501 20.4955C64.0794 20.4947 64.4425 20.4558 64.6976 20.218C64.8933 20.0429 64.9641 19.7555 64.9134 19.4995C64.8627 19.1989 64.6912 18.9446 64.5318 18.6944C63.0956 16.42 61.6627 14.1432 60.2257 11.8689C60.0091 11.5278 59.6493 11.233 59.2331 11.2537C58.8265 11.2677 58.4932 11.5691 58.2896 11.9094C54.7514 17.6926 51.2141 23.4775 47.676 29.2616C47.337 29.7992 47.0279 30.3567 46.6696 30.8802C46.0393 31.6631 45.0869 32.19 44.0959 32.2585C41.7645 32.2668 39.4331 32.2594 37.1017 32.2627C36.7089 32.2685 36.2532 32.176 36.0302 31.8101C35.8104 31.4443 35.9328 30.9802 36.1333 30.6358C41.5399 21.2065 46.9497 11.7781 52.354 2.34796C52.8137 1.47589 53.6815 0.882945 54.6041 0.639326L54.604 0.639244ZM26.5888 1.03564C27.1845 0.881211 27.8028 0.877907 28.4138 0.880385C30.7001 0.881211 32.9856 0.881211 35.2719 0.880385C35.2115 2.98211 35.2365 5.08557 35.23 7.18813C35.2389 11.9796 35.2598 16.7702 35.2743 21.5616C35.3298 23.2463 35.1584 24.964 34.5441 26.5397C34.0418 27.8536 33.24 29.051 32.195 29.9727C31.1292 30.9224 29.8331 31.5748 28.4782 31.9621C27.1217 32.351 25.7064 32.4906 24.3016 32.479H10.2948C7.85395 32.5344 5.41388 31.7176 3.43832 30.2534C2.07942 29.2402 0.926531 27.8693 0.362281 26.2292C0.129545 25.5512 -0.00159542 24.8327 1.46529e-05 24.1134C0.000819689 22.5592 1.46529e-05 21.0058 1.46529e-05 19.4516C2.41271 19.4508 4.8254 19.4525 7.2381 19.4508C7.88052 19.4508 8.55916 19.4566 9.14281 19.7688C9.66126 20.0338 9.972 20.5905 10.0887 21.1561C10.2714 21.8878 10.083 22.6575 10.2997 23.3842C10.5452 24.4314 11.3051 25.3067 12.2599 25.737C13.1785 26.1656 14.2033 26.2895 15.2031 26.2754C16.7327 26.2746 18.2623 26.2746 19.7918 26.2754C20.7402 26.2779 21.7199 26.178 22.5837 25.7486C23.2132 25.4364 23.7196 24.8798 23.9756 24.2117C24.3741 23.1893 24.3628 22.0653 24.3636 20.9811C24.325 18.5597 24.3491 16.1376 24.3427 13.7155C24.3435 10.6582 24.3411 7.60013 24.3435 4.5421C24.3508 3.71297 24.4506 2.83346 24.9256 2.13564C25.3096 1.55839 25.9359 1.1942 26.5888 1.03564Z" fill="#ED1B24"/>
<path d="M6.52054 48.8141C6.52054 48.486 6.3542 48.2216 6.02151 48.0211C5.69339 47.8206 5.29007 47.6543 4.81155 47.5221C4.3376 47.3854 3.86364 47.2259 3.38968 47.0436C2.92028 46.8613 2.51924 46.5605 2.18655 46.1412C1.85387 45.722 1.68753 45.191 1.68753 44.5485C1.68753 43.7555 2.00426 43.0787 2.63773 42.5182C3.27575 41.9576 4.1029 41.6774 5.11917 41.6774C5.52021 41.6774 5.90758 41.7252 6.28128 41.8209C6.65498 41.9121 6.96032 42.0214 7.1973 42.149C7.43883 42.2721 7.64847 42.3997 7.8262 42.5319C8.00849 42.6595 8.13838 42.7711 8.21585 42.8668L8.3389 43.0035L7.08109 44.3365C7.0264 44.2727 6.94892 44.1953 6.84866 44.1041C6.75296 44.0084 6.54788 43.8831 6.23343 43.7281C5.91898 43.5732 5.59541 43.4957 5.26273 43.4957C4.86168 43.4957 4.53812 43.5983 4.29202 43.8033C4.05049 44.0084 3.92972 44.2568 3.92972 44.5485C3.92972 44.8766 4.09378 45.1409 4.42191 45.3414C4.75459 45.5374 5.15563 45.7037 5.62503 45.8405C6.09899 45.9772 6.57295 46.1367 7.04691 46.319C7.52542 46.5013 7.93102 46.802 8.2637 47.2213C8.59638 47.6406 8.76273 48.1715 8.76273 48.8141C8.76273 49.721 8.43232 50.4615 7.77151 51.0358C7.11526 51.61 6.20836 51.8971 5.05081 51.8971C4.59508 51.8971 4.15303 51.8401 3.72464 51.7262C3.30081 51.6168 2.9499 51.4847 2.67191 51.3297C2.39847 51.1748 2.15693 51.0175 1.9473 50.858C1.73766 50.6985 1.58727 50.5641 1.49612 50.4547L1.3389 50.2838L2.60355 49.026C2.66735 49.0989 2.75622 49.1946 2.87015 49.3131C2.98864 49.427 3.2484 49.582 3.64944 49.778C4.05049 49.9739 4.46976 50.0719 4.90726 50.0719C5.41312 50.0719 5.80732 49.9534 6.08987 49.7164C6.37698 49.4795 6.52054 49.1787 6.52054 48.8141ZM22.4819 44.5006C21.8712 45.1204 21.5659 45.8837 21.5659 46.7906C21.5659 47.693 21.8712 48.4541 22.4819 49.0739C23.0926 49.6936 23.8354 50.0035 24.7104 50.0035C25.59 50.0035 26.3351 49.6936 26.9458 49.0739C27.5565 48.4541 27.8618 47.693 27.8618 46.7906C27.8618 45.8837 27.5565 45.1204 26.9458 44.5006C26.3351 43.8763 25.59 43.5641 24.7104 43.5641C23.8354 43.5641 23.0926 43.8763 22.4819 44.5006ZM20.9301 50.4C19.9048 49.3974 19.3921 48.192 19.3921 46.7838C19.3921 45.3756 19.9048 44.1725 20.9301 43.1744C21.9601 42.1764 23.2202 41.6774 24.7104 41.6774C26.2052 41.6774 27.4653 42.1764 28.4907 43.1744C29.5206 44.1725 30.0356 45.3756 30.0356 46.7838C30.0356 48.192 29.5206 49.3974 28.4907 50.4C27.4653 51.3981 26.2052 51.8971 24.7104 51.8971C23.2202 51.8971 21.9601 51.3981 20.9301 50.4ZM39.7694 41.8824H47.4667V43.776H44.6708V51.6852H42.5722V43.776H39.7694V41.8824ZM58.3148 51.6852V41.8824H62.6556C63.6263 41.8824 64.4284 42.1946 65.0619 42.819C65.6999 43.4388 66.0189 44.1998 66.0189 45.1022C66.0189 45.4941 65.9574 45.861 65.8343 46.2028C65.7113 46.5446 65.5654 46.8203 65.3968 47.0299C65.2328 47.2395 65.0641 47.4196 64.891 47.5699C64.7178 47.7203 64.5697 47.8229 64.4466 47.8776L64.2689 47.9733L66.3675 51.6852H64.1253L62.2386 48.2535H60.4203V51.6852H58.3148ZM63.9203 45.1022C63.9203 44.7194 63.7927 44.4026 63.5375 44.152C63.2868 43.9013 62.9701 43.776 62.5873 43.776H60.4203V46.3668H62.5873C62.9701 46.3668 63.2868 46.2461 63.5375 46.0045C63.7927 45.7584 63.9203 45.4576 63.9203 45.1022ZM82.6092 47.5563L81.4197 44.3365L80.2234 47.5563H82.6092ZM83.3064 49.3746H79.5262L78.6853 51.6852H76.4432L80.2986 41.8824H82.534L86.3895 51.6852H84.1473L83.3064 49.3746ZM103.752 41.8824H105.851V51.6852H104.032L99.2063 45.4576V51.6852H97.1008V41.8824H98.926L103.752 48.1168V41.8824ZM121.949 48.8141C121.949 48.486 121.783 48.2216 121.45 48.0211C121.122 47.8206 120.718 47.6543 120.24 47.5221C119.766 47.3854 119.292 47.2259 118.818 47.0436C118.349 46.8613 117.948 46.5605 117.615 46.1412C117.282 45.722 117.116 45.191 117.116 44.5485C117.116 43.7555 117.433 43.0787 118.066 42.5182C118.704 41.9576 119.531 41.6774 120.548 41.6774C120.949 41.6774 121.336 41.7252 121.71 41.8209C122.083 41.9121 122.389 42.0214 122.626 42.149C122.867 42.2721 123.077 42.3997 123.255 42.5319C123.437 42.6595 123.567 42.7711 123.644 42.8668L123.767 43.0035L122.509 44.3365C122.455 44.2727 122.377 44.1953 122.277 44.1041C122.181 44.0084 121.976 43.8831 121.662 43.7281C121.347 43.5732 121.024 43.4957 120.691 43.4957C120.29 43.4957 119.966 43.5983 119.72 43.8033C119.479 44.0084 119.358 44.2568 119.358 44.5485C119.358 44.8766 119.522 45.1409 119.85 45.3414C120.183 45.5374 120.584 45.7037 121.053 45.8405C121.527 45.9772 122.001 46.1367 122.475 46.319C122.954 46.5013 123.359 46.802 123.692 47.2213C124.025 47.6406 124.191 48.1715 124.191 48.8141C124.191 49.721 123.861 50.4615 123.2 51.0358C122.544 51.61 121.637 51.8971 120.479 51.8971C120.023 51.8971 119.581 51.8401 119.153 51.7262C118.729 51.6168 118.378 51.4847 118.1 51.3297C117.827 51.1748 117.585 51.0175 117.376 50.858C117.166 50.6985 117.016 50.5641 116.924 50.4547L116.767 50.2838L118.032 49.026C118.096 49.0989 118.185 49.1946 118.299 49.3131C118.417 49.427 118.677 49.582 119.078 49.778C119.479 49.9739 119.898 50.0719 120.336 50.0719C120.841 50.0719 121.236 49.9534 121.518 49.7164C121.805 49.4795 121.949 49.1787 121.949 48.8141Z" fill="#323333"/>
</svg>
